
<svg width="150" height="60" viewBox="0 0 150 60" fill="none" xmlns="http://www.w3.org/2000/svg">
  <rect x="10" y="10" width="40" height="40" rx="8" fill="#7C3AED" />
  <circle cx="25" cy="25" r="5" fill="white" />
  <circle cx="35" cy="25" r="5" fill="white" />
  <path d="M65 30V20H68L72 26L76 20H79V30H76V25L72 30L68 25V30H65Z" fill="#1F2937" />
  <path d="M82 30V20H85V30H82Z" fill="#1F2937" />
  <path d="M88 30V20H91L96 26V20H99V30H96L91 24V30H88Z" fill="#1F2937" />
  <path d="M102 30V20H105V30H102Z" fill="#1F2937" />
  <path d="M107 30V20H110L115 26V20H118V30H115L110 24V30H107Z" fill="#1F2937" />
  <path d="M120 25C120 22.2 122.2 20 125 20H128C130.8 20 133 22.2 133 25C133 27.8 130.8 30 128 30H125C122.2 30 120 27.8 120 25ZM123 25C123 26.1 123.9 27 125 27H128C129.1 27 130 26.1 130 25C130 23.9 129.1 23 128 23H125C123.9 23 123 23.9 123 25Z" fill="#1F2937" />
  <path d="M135 20H145V23H138V24H143V27H138V30H135V20Z" fill="#1F2937" />
  <path d="M147 30V20H150V27H155V30H147Z" fill="#1F2937" />
  <path d="M157 30V20H167V23H160V24H165V27H160V27H167V30H157Z" fill="#1F2937" />
</svg>
